<svg xmlns="http://www.w3.org/2000/svg" viewBox="0 0 72 72" style="enable-background:new 0 0 72 72" xml:space="preserve"><linearGradient id="a" gradientUnits="userSpaceOnUse" x1="22.703" y1="12.969" x2="49.574" y2="59.511"><stop offset="0" style="stop-color:#bf6798"/><stop offset="1" style="stop-color:#7dbccf"/></linearGradient><path d="m35.9 7.2 14.4 7.2v.1c-2.4 1.2-4.8 2.4-7.1 3.5L36 14.4c-7.2 3.6-14.4 7.2-21.6 10.9v21.5L36 57.6c7.2-3.6 14.4-7.2 21.6-10.9V25.2L36 36v-7.2L57.6 18c2.4 1.2 4.8 2.5 7.2 3.7v28.7L36 64.8C26.4 60 16.8 55.2 7.2 50.3V21.6c9.6-4.8 19.1-9.6 28.7-14.4z" style="fill:url(#a)"/></svg>