<svg data-name="图层 1" xmlns="http://www.w3.org/2000/svg" viewBox="0 0 72 72"><defs><linearGradient id="a" data-name="未命名的渐变 16" x1="71.15" y1="71.15" x2=".86" y2=".86" gradientUnits="userSpaceOnUse"><stop offset="0" stop-color="#194fa2"/><stop offset="1" stop-color="#bf4086"/></linearGradient></defs><path d="m35.93 7.2 14.4 7.2v.07c-2.38 1.18-4.75 2.35-7.13 3.53L36 14.4c-7.2 3.62-14.4 7.25-21.6 10.87V46.8L36 57.6c7.2-3.62 14.4-7.25 21.6-10.87V25.2L36 36v-7.2L57.6 18c2.4 1.22 4.8 2.45 7.2 3.67V50.4L36 64.8c-9.6-4.82-19.2-9.65-28.8-14.47V21.6c9.57-4.8 19.15-9.6 28.73-14.4Z" style="fill:url(#a);stroke-width:0"/></svg>